PathFileType	4	(X/Y/Z)	Run_400 02
DataRate	CameraRate	NumFrames	NumMarkers	Units	OrigDataRate	OrigDataStartFrame	OrigNumFrames
100	100	7	42	mm	100	342	128
Frame#	Time	LASI			RASI			LPSI			RPSI			RTH1			RTH3			LTH1			LTH2			LTH3			RTB1			RTB2			LTB1			LTB2			RCAL			RTOE			LCAL			LTOE			LACR			RACR			CLAV			C7			RUA1			RUA2			RUA3			RLEL			RMEL			LUA1			LUA2			LUA3			LLEL			LMEL			RFAsuperior			RFAradius			RFAulna			LFAsuperior			LFAradius			LFAulna			RTH2			RTB3			RMT5			LMT5			LTB3		
		X1	Y1	Z1	X2	Y2	Z2	X3	Y3	Z3	X4	Y4	Z4	X5	Y5	Z5	X6	Y6	Z6	X7	Y7	Z7	X8	Y8	Z8	X9	Y9	Z9	X10	Y10	Z10	X11	Y11	Z11	X12	Y12	Z12	X13	Y13	Z13	X14	Y14	Z14	X15	Y15	Z15	X16	Y16	Z16	X17	Y17	Z17	X18	Y18	Z18	X19	Y19	Z19	X20	Y20	Z20	X21	Y21	Z21	X22	Y22	Z22	X23	Y23	Z23	X24	Y24	Z24	X25	Y25	Z25	X26	Y26	Z26	X27	Y27	Z27	X28	Y28	Z28	X29	Y29	Z29	X30	Y30	Z30	X31	Y31	Z31	X32	Y32	Z32	X33	Y33	Z33	X34	Y34	Z34	X35	Y35	Z35	X36	Y36	Z36	X37	Y37	Z37	X38	Y38	Z38	X39	Y39	Z39	X40	Y40	Z40	X41	Y41	Z41	X42	Y42	Z42	

342	  3.420000	795.606340	1027.651188	-449.487569	796.267178	1045.983511	-204.068256	629.927604	1126.772713	-364.582324	626.245526	1122.273895	-282.195070	773.161840	917.906972	-140.712735	841.207025	685.764470	-172.737153	694.615036	924.576612	-509.160873	710.230568	789.532258	-486.610706	578.159853	695.706800	-480.973556	965.353021	469.007040	-235.393710	937.422001	360.222770	-187.387173	464.640985	492.032118	-417.486523	364.517078	515.058850	-472.594735	890.311832	116.881146	-277.801646	1120.056985	144.807553	-278.812802	113.678181	498.403985	-361.174789	122.955523	266.763375	-344.787432	802.483575	1573.746060	-461.087363	737.864169	1553.366338	-142.450830	833.479418	1516.757557	-267.869378	714.970511	1594.914859	-327.941910	633.209655	1490.397563	-74.872805	554.014236	1445.797371	-130.288218	547.880926	1408.752969	-58.414130	487.407435	1331.223868	-33.767400	472.959123	1320.038447	-113.442111	796.886442	1483.077071	-571.374194	738.409217	1398.083872	-589.434277	803.358502	1377.844630	-632.154987	826.981602	1295.887584	-668.991386	769.263410	1248.649177	-640.433958	507.911584	1253.190433	-18.297761	647.799814	1098.044684	-36.195048	581.070846	1073.496604	-36.323251	908.017112	1275.886037	-575.655825	948.635929	1316.960228	-429.778745	961.380472	1251.303977	-442.723743	873.241621	809.536843	-157.165558	988.136388	270.218426	-248.363276	1100.709244	 93.847263	-199.904315	 63.146981	288.286641	-410.133326	270.982053	423.358813	-395.405946	
343	  3.430000	798.757026	1026.090528	-449.660964	797.145562	1042.352120	-203.774605	631.258156	1122.931383	-366.132044	626.964205	1117.645912	-283.676234	771.150785	912.277422	-139.894705	830.683313	676.480578	-172.682936	700.102654	920.248710	-509.577220	716.891492	785.193474	-485.953852	586.889468	689.708814	-481.500451	961.387281	463.929040	-235.007010	935.853958	353.888528	-188.565399	468.477867	491.762512	-416.808848	370.688167	522.097496	-472.612003	902.124757	110.715798	-284.308887	1130.473619	144.406809	-273.911374	119.002692	527.593655	-360.952227	110.788333	296.030935	-346.345631	802.573425	1570.741782	-458.676269	738.492449	1548.638629	-140.592243	833.904821	1513.080681	-266.234049	715.418949	1592.087990	-325.489139	634.276102	1485.042025	-72.849665	555.522539	1439.494184	-128.707942	549.573531	1402.610453	-56.622036	490.376102	1324.414141	-31.336847	476.107086	1312.412984	-111.216302	795.269446	1481.735990	-570.097500	735.720724	1397.504495	-588.056570	800.198152	1376.595662	-631.904503	822.689596	1294.459740	-669.384440	763.737029	1248.215682	-641.889073	511.224989	1246.241987	-15.634681	652.549018	1091.691897	-32.603506	586.197513	1067.037082	-33.449581	904.283069	1267.547492	-577.966771	948.896255	1302.127348	-431.212924	957.377395	1236.490766	-446.493011	864.868619	797.910738	-156.367102	993.007795	266.624329	-248.217199	1109.147624	 90.909116	-197.298023	 52.712414	322.246481	-411.331455	269.691697	439.863078	-394.734935	
344	  3.440000	801.324471	1023.119533	-449.639775	797.345103	1037.622004	-203.523118	632.068233	1117.907362	-368.451270	626.925271	1112.175965	-285.225011	768.577676	904.818760	-138.417558	822.650440	668.209251	-174.103921	705.215019	914.450680	-509.703711	723.803565	779.534126	-485.342677	596.288658	682.163927	-482.058732	956.748109	458.472405	-235.038980	931.893107	347.560668	-190.224653	474.116478	490.380403	-416.659030	378.975642	528.511730	-472.342924	905.999040	105.722136	-291.133799	1133.316297	139.294388	-267.979667	128.718365	554.748511	-359.479048	102.998795	324.303831	-350.967639	802.439836	1566.609664	-456.977756	739.153131	1542.365608	-138.542340	834.292028	1508.219699	-264.749316	715.650789	1587.720197	-323.035255	635.920259	1478.115767	-70.293507	557.110654	1431.109169	-126.430940	552.282836	1394.779482	-53.885630	494.121075	1315.007719	-28.268676	479.926605	1302.341504	-108.066348	793.362956	1478.840841	-568.830951	732.424206	1395.691033	-587.015948	796.318393	1373.911359	-631.612258	817.315625	1291.811142	-670.072881	757.148203	1246.675086	-643.208214	515.586736	1236.771759	-12.428738	658.786101	1083.309902	-29.062015	592.827766	1058.412910	-29.989618	899.434606	1257.660940	-581.142503	948.094150	1284.641499	-433.685267	952.622181	1219.421411	-451.768163	858.072576	787.277497	-154.971174	993.022271	262.049325	-248.434058	1108.454477	 83.600675	-194.431688	 47.768952	356.440283	-415.642458	271.710133	455.312971	-394.312866	
345	  3.450000	803.048078	1018.553417	-449.129794	796.789429	1031.625530	-203.251527	632.273849	1111.616711	-370.651014	626.178166	1106.088959	-286.691692	765.310360	896.606631	-136.735956	817.329286	661.036292	-176.258522	709.977302	907.368791	-509.760079	730.831836	772.982325	-484.915467	605.990856	673.382112	-482.765914	951.428645	451.667968	-235.193239	925.880916	340.404962	-191.611525	481.659918	488.000471	-417.185414	389.615468	534.148479	-472.280900	902.084720	100.985113	-296.422747	1129.180846	128.716724	-265.153026	142.203400	579.442036	-357.392134	100.068380	351.059167	-357.692973	802.079878	1561.562330	-456.276786	739.924267	1534.563120	-136.287059	834.630173	1502.325618	-263.330763	715.826026	1581.839201	-320.672160	638.016029	1469.474298	-67.151385	558.783105	1420.610838	-123.345085	555.724051	1384.557388	-50.522980	498.706675	1303.071945	-24.581004	484.285068	1289.996010	-103.904529	790.867655	1474.358827	-567.916708	728.514625	1392.535992	-586.262986	791.780091	1370.005536	-631.650039	811.018437	1288.044424	-670.928706	749.621499	1244.182575	-644.298015	521.142582	1224.952620	 -8.685498	666.681963	1073.269771	-25.729867	601.060926	1047.796961	-26.088121	893.501559	1246.530322	-585.029457	946.080637	1264.823780	-437.275261	947.097222	1200.478805	-458.570641	853.185146	778.786470	-153.755922	988.699884	255.353435	-248.691519	1100.471963	 72.134701	-193.553764	 48.760403	389.558511	-422.160969	277.050269	469.540952	-394.281850	
346	  3.460000	804.045979	1012.644289	-448.368646	795.750229	1024.553979	-202.970786	632.037217	1104.107942	-372.186247	625.208768	1099.332457	-287.998359	761.395308	888.510516	-135.669195	814.089614	654.456730	-178.217722	714.403156	899.403253	-509.945654	737.992279	765.985411	-485.116229	615.998072	663.576729	-483.851799	945.672318	442.751019	-235.421035	918.063123	331.769239	-192.670953	491.234253	484.639338	-418.380782	402.799389	538.733770	-472.709539	889.433221	 96.400386	-299.847545	1117.529168	113.425309	-267.983644	158.763821	601.467791	-355.365316	102.397234	375.922776	-365.414319	801.515663	1555.621087	-456.175116	740.816086	1525.496448	-133.903211	834.932460	1495.519873	-261.999460	716.057242	1574.629845	-318.436662	640.461236	1458.837525	-63.681863	560.607903	1408.227298	-119.331610	559.748928	1371.561411	-46.856902	504.353713	1289.010762	-20.312853	489.335157	1275.634083	-98.994197	787.596812	1468.528338	-567.381796	724.045827	1388.109621	-585.545917	786.644631	1365.087297	-631.964655	803.949619	1283.329923	-671.826548	741.194907	1240.992496	-645.052086	528.066105	1211.141315	 -4.467402	676.370223	1061.920401	-22.746724	611.024680	1035.494306	-21.905616	886.538961	1234.429431	-589.518816	942.763502	1243.000561	-442.072724	940.656529	1179.943734	-466.869042	850.180411	772.252276	-153.579158	979.806078	245.889797	-249.656454	1085.238161	 59.735501	-195.203713	 55.698065	420.349360	-429.836034	285.771944	482.278112	-394.841866	
347	  3.470000	804.609440	1005.893565	-447.729419	794.504421	1016.866334	-202.587116	631.483493	1095.592686	-373.174722	624.237085	1091.674068	-289.022459	757.527609	880.560660	-135.942166	812.455227	647.812630	-179.320870	718.380540	890.836145	-510.274365	745.382642	758.646988	-486.252041	626.655764	652.744239	-485.513437	939.598070	431.819108	-236.713482	908.517864	321.675715	-194.731785	502.917395	480.262037	-420.138577	418.538657	541.885355	-473.684676	866.690116	 91.722799	-303.007609	1097.028478	 96.426776	-275.206621	177.934113	620.729658	-354.046031	110.012848	398.563792	-373.070052	800.830739	1548.713660	-455.944683	741.843086	1515.596328	-131.464128	835.301875	1487.777222	-260.951850	716.304555	1566.265464	-316.253010	643.253108	1445.994104	-60.202951	562.677818	1394.338417	-114.254172	564.553644	1356.081617	-42.905022	511.253491	1273.305702	-15.564074	495.395474	1259.573256	-93.753524	783.619663	1461.721779	-567.010184	719.123932	1382.649278	-584.631437	780.972300	1359.298686	-632.230155	796.285245	1277.895505	-672.768502	731.998027	1237.333119	-645.484298	536.527003	1195.782125	  0.084084	687.888160	1049.629446	-20.172334	622.839134	1021.950104	-17.594281	878.636950	1221.610898	-594.575134	938.027305	1219.558025	-448.108833	933.133605	1158.054039	-476.628572	849.028334	766.580461	-154.520228	965.268228	234.028006	-253.408811	1061.398432	 50.904123	-197.961697	 68.230484	447.814721	-437.824400	297.879429	493.153303	-396.034284	
348	  3.480000	804.829126	998.565710	-447.218927	793.040257	1008.818936	-202.027981	630.334007	1086.250677	-373.927384	622.718216	1083.026996	-289.585565	754.601722	872.611260	-137.444728	812.324155	640.943816	-179.549173	721.774092	881.585261	-510.563211	752.991445	750.689569	-487.933203	638.297322	640.840200	-487.614672	932.905668	420.156786	-240.378125	896.807447	311.374858	-199.321888	516.829756	474.987207	-422.313872	436.636579	543.154904	-475.219073	834.203743	 86.647668	-307.749749	1067.398277	 82.164974	-282.973574	199.644462	637.080213	-353.960454	122.470124	418.598577	-379.928878	800.168380	1540.946013	-455.228245	743.122811	1505.248962	-128.898104	835.964719	1478.939571	-260.301520	716.358654	1556.846426	-313.965089	646.570164	1431.062245	-56.733433	565.203749	1379.131376	-108.010645	570.450649	1338.752412	-38.435476	519.446185	1256.273146	-10.484094	502.668090	1242.113693	-88.435294	779.230715	1454.315655	-566.592863	713.913971	1376.480419	-583.488514	774.875047	1352.766514	-632.269453	788.199249	1271.952263	-673.843476	722.372377	1233.292808	-645.817524	546.674566	1179.311546	  4.774011	701.152279	1036.824423	-18.039952	636.592795	1007.714247	-13.345604	869.883308	1208.270402	-600.193938	931.742076	1194.949689	-455.354501	924.390846	1135.159278	-487.805148	849.201441	760.921524	-155.787285	944.408215	221.532416	-261.392925	1028.711596	 47.988832	-200.279097	 85.628550	471.258499	-445.525135	313.218854	501.886282	-397.660935	
